Coordinates
nRows=154
nColumns=2
inDegrees=yes
endheader
time	ankle_angle_r	
4.5	 -0.571757	
4.5625	 -0.532207	
4.625	 -0.545756	
4.6875	 -0.544000	
4.75	 -0.516034	
4.8125	 -0.521466	
4.875	 -0.528220	
4.9375	 -0.510253	
5	 -0.502542	
5.0625	 -0.501141	
5.125	 -0.488776	
5.1875	 -0.476520	
5.25	 -0.487507	
5.3125	 -0.511598	
5.375	 -0.520644	
5.4375	 -0.527367	
5.5	 -0.536580	
5.5625	 -0.537899	
5.625	 -0.536919	
5.6875	 -0.527710	
5.75	 -0.524089	
5.8125	 -0.532450	
5.875	 -0.526219	
5.9375	 -0.525658	
6	 -0.555379	
6.0625	 -0.575962	
6.125	 -0.541999	
6.1875	 -0.479765	
6.25	 -0.443036	
6.3125	 -0.431041	
6.375	 -0.444818	
6.4375	 -0.471132	
6.5	 -0.477384	
6.5625	 -0.489903	
6.625	 -0.482888	
6.6875	 -0.424543	
6.75	 -0.393884	
6.8125	 -0.411887	
6.875	 -0.439470	
6.9375	 -0.459654	
7	 -0.459275	
7.0625	 -0.461235	
7.125	 -0.465095	
7.1875	 -0.461112	
7.25	 -0.456456	
7.3125	 -0.444772	
7.375	 -0.451007	
7.4375	 -0.462867	
7.5	 -0.460087	
7.5625	 -0.466965	
7.625	 -0.457515	
7.6875	 -0.422813	
7.75	 -0.408769	
7.8125	 -0.439439	
7.875	 -0.478639	
7.9375	 -0.482067	
8	 -0.483684	
8.0625	 -0.490207	
8.125	 -0.484253	
8.1875	 -0.502037	
8.25	 -0.521219	
8.3125	 -0.526552	
8.375	 -0.547736	
8.4375	 -0.557979	
8.5	 -0.556094	
8.5625	 -0.557115	
8.625	 -0.544424	
8.6875	 -0.528357	
8.75	 -0.517980	
8.8125	 -0.523652	
8.875	 -0.547755	
8.9375	 -0.560082	
9	 -0.552865	
9.0625	 -0.533858	
9.125	 -0.516674	
9.1875	 -0.514063	
9.25	 -0.513535	
9.3125	 -0.504176	
9.375	 -0.496361	
9.4375	 -0.508792	
9.5	 -0.504539	
9.5625	 -0.461696	
9.625	 -0.454921	
9.6875	 -0.482113	
9.75	 -0.479750	
9.8125	 -0.466085	
9.875	 -0.469241	
9.9375	 -0.490268	
10	 -0.496594	
10.0625	 -0.460103	
10.125	 -0.421058	
10.1875	 -0.418572	
10.25	 -0.452222	
10.3125	 -0.486835	
10.375	 -0.505366	
10.4375	 -0.534335	
10.5	 -0.545657	
10.5625	 -0.528173	
10.625	 -0.525695	
10.6875	 -0.527577	
10.75	 -0.532951	
10.8125	 -0.551556	
10.875	 -0.565684	
10.9375	 -0.551252	
11	 -0.507217	
11.0625	 -0.560706	
11.125	 -0.730573	
11.1875	 -0.824762	
11.25	 -0.785069	
11.3125	 -0.676858	
11.375	 -0.576151	
11.4375	 -0.531345	
11.5	 -0.511850	
11.5625	 -0.513615	
11.625	 -0.520130	
11.6875	 -0.516609	
11.75	 -0.533813	
11.8125	 -0.553751	
11.875	 -0.560116	
11.9375	 -0.552527	
12	 -0.532921	
12.0625	 -0.512542	
12.125	 -0.477213	
12.1875	 -0.455699	
12.25	 -0.470476	
12.3125	 -0.483221	
12.375	 -0.490411	
12.4375	 -0.491148	
12.5	 -0.473719	
12.5625	 -0.459964	
12.625	 -0.469428	
12.6875	 -0.489643	
12.75	 -0.488020	
12.8125	 -0.482685	
12.875	 -0.496688	
12.9375	 -0.494357	
13	 -0.479840	
13.0625	 -0.472967	
13.125	 -0.470072	
13.1875	 -0.480167	
13.25	 -0.483759	
13.3125	 -0.473335	
13.375	 -0.461314	
13.4375	 -0.446757	
13.5	 -0.455227	
13.5625	 -0.478262	
13.625	 -0.488312	
13.6875	 -0.500591	
13.75	 -0.509580	
13.8125	 -0.504253	
13.875	 -0.485471	
13.9375	 -0.461784	
14	 -0.459848	
14.0625	 -0.477685	
